<svg>
<rect x="5" y="5" width="10" height="10" fill="Green" stroke="Brown" stroke-width="3" />
<circle cx="5" cy="5" r="10" fill="Blue" />
<rect x="100" y="60" width="10" height="10" fill="Red" stroke="Pink" stroke-width="12" />
<line x1="100" y1="300" x2="300" y2="100" stroke="White" stroke-width="5" />
<line x1="1" y1="1" x2="1" y2="1" stroke="Green" stroke-width="1" />
<polygon fill="Red" stroke="Blue" stroke-width="10" points=" 350,75  379,161  469,161  397,215  423,301  350,250  277,301  303,215  231,161  321,161 " />
<polygon fill="Lime" stroke="Blue" stroke-width="10" points=" 850,75  958,137.5  958,262.5  850,325  742,262.6  742,137.5 " />
<polygon fill="Pink" stroke="Red" stroke-width="12" points=" 12,2  17,0  24,5  11,2  18.2,19.2 " />
</svg>